<svg clip-rule="evenodd" fill-rule="evenodd" stroke-linejoin="round" stroke-miterlimit="2" viewBox="0 0 512 512" xmlns="http://www.w3.org/2000/svg" xmlns:xlink="http://www.w3.org/1999/xlink"><linearGradient id="a" gradientTransform="matrix(-149.618 494.3 -494.3 -149.618 300.81 -27.1283)" gradientUnits="userSpaceOnUse" x1="0" x2="1" y1="0" y2="0"><stop offset="0" stop-color="#515bd4"/><stop offset=".26" stop-color="#9510b8"/><stop offset=".66" stop-color="#e51804"/><stop offset="1" stop-color="#feda77"/></linearGradient><linearGradient id="b" gradientTransform="matrix(-149.618 494.3 -494.3 -149.618 300.81 -27.1283)" gradientUnits="userSpaceOnUse" x1="0" x2="1" y1="0" y2="0"><stop offset="0" stop-color="#515bd4"/><stop offset=".26" stop-color="#9510b8"/><stop offset=".66" stop-color="#e51804"/><stop offset="1" stop-color="#ffbf00"/></linearGradient><g fill-rule="nonzero"><path d="m256 0c-69.526 0-78.244.295-105.549 1.541-27.248 1.243-45.858 5.57-62.142 11.899-16.834 6.542-31.111 15.296-45.342 29.528-14.232 14.231-22.986 28.508-29.528 45.342-6.329 16.283-10.656 34.893-11.899 62.141-1.246 27.305-1.54 36.023-1.54 105.549 0 69.524.294 78.242 1.54 105.547 1.243 27.248 5.57 45.858 11.899 62.141 6.542 16.834 15.296 31.111 29.528 45.344 14.231 14.231 28.508 22.985 45.342 29.527 16.284 6.328 34.894 10.656 62.142 11.899 27.305 1.245 36.023 1.54 105.549 1.54 69.524 0 78.242-.295 105.547-1.54 27.248-1.243 45.858-5.571 62.141-11.899 16.834-6.542 31.111-15.296 45.344-29.527 14.231-14.233 22.985-28.51 29.527-45.344 6.328-16.283 10.656-34.893 11.899-62.141 1.245-27.305 1.54-36.023 1.54-105.547 0-69.526-.295-78.244-1.54-105.549-1.243-27.248-5.571-45.858-11.899-62.141-6.542-16.834-15.296-31.111-29.527-45.342-14.233-14.232-28.51-22.986-45.344-29.528-16.283-6.329-34.893-10.656-62.141-11.899-27.305-1.246-36.023-1.541-105.547-1.541zm0 46.127c68.354 0 76.451.26 103.445 1.492 24.959 1.139 38.514 5.309 47.535 8.814 11.949 4.644 20.477 10.192 29.435 19.15 8.959 8.958 14.506 17.487 19.15 29.435 3.506 9.021 7.676 22.576 8.815 47.535 1.231 26.995 1.492 35.092 1.492 103.447 0 68.354-.261 76.451-1.492 103.445-1.139 24.959-5.309 38.514-8.815 47.535-4.644 11.949-10.191 20.477-19.15 29.435-8.958 8.959-17.486 14.506-29.435 19.15-9.021 3.506-22.576 7.676-47.535 8.814-26.99 1.232-35.086 1.493-103.445 1.493-68.361 0-76.455-.261-103.447-1.493-24.959-1.138-38.514-5.308-47.535-8.814-11.949-4.644-20.477-10.191-29.436-19.15-8.958-8.958-14.506-17.486-19.149-29.435-3.506-9.021-7.676-22.576-8.815-47.535-1.232-26.994-1.492-35.091-1.492-103.445 0-68.355.26-76.452 1.492-103.447 1.139-24.959 5.309-38.514 8.815-47.535 4.643-11.948 10.191-20.477 19.149-29.435 8.959-8.958 17.487-14.506 29.436-19.15 9.021-3.505 22.576-7.675 47.535-8.814 26.995-1.232 35.092-1.492 103.447-1.492z" fill="url(#a)"/><g fill="url(#b)"><path d="m256 341.332c-47.129 0-85.334-38.205-85.334-85.332 0-47.129 38.205-85.334 85.334-85.334 47.127 0 85.332 38.205 85.332 85.334 0 47.127-38.205 85.332-85.332 85.332zm0-216.792c-72.604 0-131.46 58.856-131.46 131.46 0 72.602 58.856 131.458 131.46 131.458 72.602 0 131.458-58.856 131.458-131.458 0-72.604-58.856-131.46-131.458-131.46z"/><path d="m423.372 119.346c0 16.967-13.754 30.72-30.72 30.72s-30.72-13.753-30.72-30.72c0-16.966 13.754-30.719 30.72-30.719s30.72 13.753 30.72 30.719z"/></g></g></svg>