<svg enable-background="new 0 0 128 128" height="128" viewBox="0 0 128 128" width="128" xmlns="http://www.w3.org/2000/svg" xmlns:xlink="http://www.w3.org/1999/xlink"><linearGradient id="a" gradientTransform="matrix(1 0 0 -1 594 633)" gradientUnits="userSpaceOnUse" x1="-577.5122" x2="-482.4879" y1="501.1455" y2="636.8544"><stop offset="0" stop-color="#ffb900"/><stop offset="1" stop-color="#9100eb"/></linearGradient><path d="m128 112c0 8.8-7.2 16-16 16h-96c-8.8 0-16-7.2-16-16v-96c0-8.8 7.2-16 16-16h96c8.8 0 16 7.2 16 16z" fill="url(#a)"/><g fill="#fff"><path d="m86 112h-44c-14.336 0-26-11.663-26-26v-44c0-14.336 11.664-26 26-26h44c14.337 0 26 11.664 26 26v44c0 14.337-11.663 26-26 26zm-44-88c-9.925 0-18 8.075-18 18v44c0 9.925 8.075 18 18 18h44c9.925 0 18-8.075 18-18v-44c0-9.925-8.075-18-18-18z"/><path d="m64 88c-13.234 0-24-10.767-24-24 0-13.234 10.766-24 24-24 13.233 0 24 10.766 24 24 0 13.233-10.767 24-24 24zm0-40c-8.822 0-16 7.178-16 16s7.178 16 16 16 16-7.178 16-16-7.178-16-16-16z"/><circle cx="89.5" cy="38.5" r="5.5"/></g></svg>