<svg height="256" viewBox="0 0 256 256" width="256" xmlns="http://www.w3.org/2000/svg"><g fill="#000" stroke-miterlimit="10" stroke-width="0" transform="matrix(2.81 0 0 2.81 1.406593 1.406593)"><path d="m24.89 23.01 32.9 43.98h7.45l-32.9-43.98z"/><path d="m72.349 0h-54.698c-9.749 0-17.651 7.902-17.651 17.651v54.699c0 9.748 7.902 17.65 17.651 17.65h54.699c9.748 0 17.65-7.902 17.65-17.651v-54.698c0-9.749-7.902-17.651-17.651-17.651zm-16.317 70.504-14.978-20.027-18.538 20.027h-4.765l21.174-22.874-21.041-28.134h16.217l13.794 18.444 17.072-18.444h4.765l-19.708 21.292 22.225 29.716z"/></g></svg>